<svg id="phone-24px" xmlns="http://www.w3.org/2000/svg" width="20" height="20" viewBox="0 0 30 30">
  <path id="Path_26" data-name="Path 26" d="M0,0H30V30H0Z" fill="none" />
  <path id="Path_27" data-name="Path 27"
    d="M7.525,12.738a18.936,18.936,0,0,0,8.238,8.238l2.75-2.75a1.243,1.243,0,0,1,1.275-.3,14.259,14.259,0,0,0,4.462.712,1.254,1.254,0,0,1,1.25,1.25V24.25a1.254,1.254,0,0,1-1.25,1.25A21.248,21.248,0,0,1,3,4.25,1.254,1.254,0,0,1,4.25,3H8.625a1.254,1.254,0,0,1,1.25,1.25,14.2,14.2,0,0,0,.712,4.462,1.254,1.254,0,0,1-.312,1.275Z"
    transform="translate(0.75 0.75)" fill="#0079e0" />
</svg>
